HIERARCHY
ROOT Hips
{
    OFFSET 0.000000 0.000000 0.000000
    CHANNELS 6 Xposition Yposition Zposition Zrotation Xrotation Yrotation
    JOINT Spine
    {
        OFFSET -0.000000 0.081343 0.000000
        CHANNELS 3 Zrotation Xrotation Yrotation
        JOINT Spine1
        {
            OFFSET -0.000000 0.243280 0.000000
            CHANNELS 3 Zrotation Xrotation Yrotation
            JOINT Neck
            {
                OFFSET -0.000000 0.242281 0.022026
                CHANNELS 3 Zrotation Xrotation Yrotation
                JOINT Head
                {
                    OFFSET -0.000000 0.149025 -0.021289
                    CHANNELS 3 Zrotation Xrotation Yrotation
                    End Site
                    {
                        OFFSET -0.000000 0.198396 0.000000
                    }
                }
            }
            JOINT LeftShoulder
            {
                OFFSET 0.039707 0.224479 -0.002125
                CHANNELS 3 Zrotation Xrotation Yrotation
                JOINT LeftArm
                {
                    OFFSET 0.116942 0.000000 0.000000
                    CHANNELS 3 Zrotation Xrotation Yrotation
                    JOINT LeftForeArm
                    {
                        OFFSET 0.282002 0.000000 0.000000
                        CHANNELS 3 Zrotation Xrotation Yrotation
                        JOINT LeftHand
                        {
                            OFFSET 0.358743 0.000000 0.000000
                            CHANNELS 3 Zrotation Xrotation Yrotation
                            End Site
                            {
                                OFFSET 0.148797 0.000000 0.000000
                            }
                        }
                    }
                }
            }
            JOINT RightShoulder
            {
                OFFSET -0.039404 0.224479 -0.002125
                CHANNELS 3 Zrotation Xrotation Yrotation
                JOINT RightArm
                {
                    OFFSET -0.116942 0.000000 0.000000
                    CHANNELS 3 Zrotation Xrotation Yrotation
                    JOINT RightForeArm
                    {
                        OFFSET -0.282002 0.000000 0.000000
                        CHANNELS 3 Zrotation Xrotation Yrotation
                        JOINT RightHand
                        {
                            OFFSET -0.358743 0.000000 0.000000
                            CHANNELS 3 Zrotation Xrotation Yrotation
                            End Site
                            {
                                OFFSET -0.148797 0.000000 0.000000
                            }
                        }
                    }
                }
            }
        }
    }
    JOINT LeftUpLeg
    {
        OFFSET 0.099198 0.000000 0.000000
        CHANNELS 3 Zrotation Xrotation Yrotation
        JOINT LeftLeg
        {
            OFFSET -0.000000 -0.332973 0.000000
            CHANNELS 3 Zrotation Xrotation Yrotation
            JOINT LeftFoot
            {
                OFFSET -0.000000 -0.491254 0.000000
                CHANNELS 3 Zrotation Xrotation Yrotation
                JOINT LeftToeBase
                {
                    OFFSET -0.000000 -0.064479 0.148797
                    CHANNELS 3 Zrotation Xrotation Yrotation
                    End Site
                    {
                        OFFSET -0.000000 0.000000 0.039679
                    }
                }
            }
        }
    }
    JOINT RightUpLeg
    {
        OFFSET -0.099198 0.000000 0.000000
        CHANNELS 3 Zrotation Xrotation Yrotation
        JOINT RightLeg
        {
            OFFSET -0.000000 -0.332973 0.000000
            CHANNELS 3 Zrotation Xrotation Yrotation
            JOINT RightFoot
            {
                OFFSET -0.000000 -0.491254 0.000000
                CHANNELS 3 Zrotation Xrotation Yrotation
                JOINT RightToeBase
                {
                    OFFSET -0.000000 -0.064479 0.148797
                    CHANNELS 3 Zrotation Xrotation Yrotation
                    End Site
                    {
                        OFFSET -0.000000 0.000000 0.039679
                    }
                }
            }
        }
    }
}
MOTION
Frames:    14
Frame Time:    0.010000
-0.428526    0.828518    1.521317    -1.395166    -7.956267    -15.743671    -2.361346    0.564546    -7.820821    -5.930747    12.736324    -1.947012    7.304736    20.138803    22.889170    -22.126549    -5.851398    20.014658    -7.695981    28.132631    -10.691050    -12.659103    31.810452    -45.031902    12.384597    42.354698    -68.132439    38.751534    31.377192    -57.074921    5.846798    25.372568    7.389070    33.898701    26.872402    21.247471    -12.718027    14.868097    46.289516    8.693875    20.036375    -0.566858    10.180941    -18.807844    -3.053802    -5.832161    25.028158    -29.085526    0.678459    -15.512087    8.141925    0.000000    0.000000    0.000000    -1.094678    -9.746803    -4.980469    -23.275764    44.804787    -0.209209    22.170362    -11.190104    50.433121    0.000000    0.000000    0.000000    
-0.431257    0.827080    1.514353    -1.376024    -7.960863    -15.389244    -1.828232    0.183129    -7.202883    -7.517662    14.023499    -1.474889    7.379702    20.250776    22.669186    -20.449121    -8.530358    19.635204    -6.824033    27.507645    -10.326818    -13.708870    30.599497    -45.038998    12.384597    42.354698    -68.132439    38.751534    31.377192    -57.074921    7.551697    23.771734    8.408812    31.452497    32.075748    21.629076    -14.375030    10.707661    44.505547    9.261832    16.447281    -0.132345    10.551720    -18.708233    -3.206186    -6.007143    23.971832    -28.125965    0.678459    -15.512087    8.141925    0.000000    0.000000    0.000000    -0.538193    -10.029446    -5.091220    -22.829636    45.218922    1.294525    21.022343    -13.156590    47.489655    0.000000    0.000000    0.000000    
-0.435514    0.824924    1.506383    -1.542158    -7.904107    -14.948439    -2.652352    0.524953    -6.366783    -4.113245    13.821310    -1.625551    3.978946    20.780413    22.743902    -19.508871    -9.223943    19.684042    -9.568033    27.614721    -10.395966    -13.043489    30.850843    -44.374924    12.384597    42.354698    -68.132439    38.751534    31.377192    -57.074921    4.858398    23.512379    9.649105    31.630438    31.892094    22.332926    -14.271003    10.115545    43.758434    9.616555    15.752335    0.243462    11.446779    -19.149981    -0.984360    -5.589420    23.942961    -29.974619    0.678459    -15.512087    8.141925    0.000000    0.000000    0.000000    0.234202    -10.127652    -5.169053    -22.684940    45.545338    2.797585    20.569284    -16.206566    44.726372    0.000000    0.000000    0.000000    
-0.439067    0.823521    1.499076    -1.604370    -7.873603    -14.595419    -2.456385    0.467003    -5.401745    -3.800891    14.271923    -1.326043    3.799456    20.607185    22.789499    -19.525742    -9.023014    19.747898    -9.837863    27.766665    -10.489954    -13.141619    31.474781    -44.451839    12.384597    42.354698    -68.132439    38.751534    31.377192    -57.074921    4.914933    21.764219    10.760718    31.124887    31.467041    21.506977    -11.642523    10.342677    44.084522    9.366343    14.861676    -1.233934    12.114447    -19.175034    0.065566    -5.574541    23.243721    -30.497063    0.678459    -15.512087    8.141925    0.000000    0.000000    0.000000    1.984594    -9.950693    -5.461290    -22.684940    45.545338    2.797585    20.569284    -16.206566    44.726372    0.000000    0.000000    0.000000    
-0.430903    0.834219    1.505363    -4.376128    -10.491030    -12.266801    4.159761    1.469234    -6.998750    -9.308996    16.865641    -0.936357    7.693058    18.739248    23.472708    -22.961525    -5.162038    20.522917    -8.752211    27.580570    -10.016056    -14.420196    29.808125    -44.558441    12.384597    42.354698    -68.132439    38.751534    31.377192    -57.074921    5.747073    22.614313    10.978538    27.744303    30.225790    24.750677    -11.651651    11.852604    42.651550    9.996271    16.308294    0.320033    10.910132    -14.299976    -5.802201    -3.562757    19.686317    -27.565125    0.678459    -15.512087    8.141925    0.000000    0.000000    0.000000    1.202237    -3.738252    -9.217406    -18.781889    41.281597    9.742252    13.423288    -18.628202    31.691931    0.000000    0.000000    0.000000    
-0.430070    0.832234    1.498873    -2.137731    -13.495746    -8.692256    1.686750    4.717053    -8.168402    -8.084932    16.667562    -1.518608    4.666828    19.610367    23.533503    -19.577057    -7.947937    20.695404    -9.551930    27.699518    -10.112519    -14.457047    29.163862    -44.280750    12.384597    42.354698    -68.132439    38.751534    31.377192    -57.074921    5.317747    20.815292    12.054071    27.740301    30.553614    24.247341    -6.569061    8.269973    42.386082    6.570237    10.754743    -0.533701    7.007620    -12.632022    -8.947728    -2.757898    19.165813    -27.078049    0.678459    -15.512087    8.141925    0.000000    0.000000    0.000000    -1.122289    -0.223331    -12.797298    -18.853388    41.413620    9.789488    12.243586    -23.596514    28.037016    0.000000    0.000000    0.000000    
-0.431634    0.831262    1.491378    -2.164867    -13.321943    -7.757424    2.390434    4.513299    -7.813736    -8.254347    17.164722    -1.331014    6.337452    18.653902    23.503235    -21.650639    -5.366861    20.716356    -9.626078    28.679831    -9.606813    -15.256335    26.539694    -44.344845    12.384597    42.354698    -68.132439    38.751534    31.377192    -57.074921    5.519454    18.497892    13.388870    27.798824    31.609444    22.929272    -9.605313    12.269087    40.849926    9.138708    15.891718    1.863816    7.187428    -12.978283    -8.888648    -2.575038    18.543083    -27.433100    0.678459    -15.512087    8.141925    0.000000    0.000000    0.000000    -1.492313    -0.932366    -13.324163    -18.537569    40.535210    8.279181    14.860189    -21.223204    33.935200    0.000000    0.000000    0.000000    
-0.433476    0.830380    1.483636    -2.303437    -12.882776    -6.874022    3.066825    4.431982    -7.238795    -8.012855    17.293177    -1.159135    7.073842    18.323183    23.683350    -23.246679    -5.446399    20.593912    -9.900117    28.940662    -9.232242    -17.519152    23.756365    -44.126328    12.384597    42.354698    -68.132439    38.751534    31.377192    -57.074921    4.561327    20.017567    12.806123    25.645147    30.645855    26.728701    -5.982852    8.668571    39.631664    6.385767    10.863846    1.248704    7.598917    -13.583757    -8.706492    -2.516657    17.970772    -27.938845    0.678459    -15.512087    8.141925    0.000000    0.000000    0.000000    -0.927323    -1.796653    -14.037247    -18.770714    40.591293    8.134236    14.830103    -21.413074    33.964481    0.000000    0.000000    0.000000    
-0.435554    0.829939    1.476691    -2.352387    -12.549556    -6.045039    3.611554    3.903703    -7.023040    -7.800762    17.895281    -1.075953    6.109939    18.491062    23.957176    -22.816391    -6.180782    20.809622    -9.640405    27.259277    -9.135522    -20.180117    24.557283    -43.064651    12.384597    42.354698    -68.132439    38.751534    31.377192    -57.074921    3.752316    18.853977    14.387327    25.650764    31.234737    26.825344    -5.598682    8.696693    38.082996    3.314939    10.611772    0.298058    7.933389    -13.848335    -8.457717    -2.487229    17.194775    -28.531481    0.678459    -15.512087    8.141925    0.000000    0.000000    0.000000    -0.542387    -2.711173    -14.680202    -18.992805    40.925762    8.323258    14.605222    -21.348705    33.589462    0.000000    0.000000    0.000000    
-0.436988    0.830076    1.468159    -2.297678    -12.287139    -5.174416    4.197689    3.985648    -6.631076    -7.844061    17.939913    -0.927605    5.835541    19.116659    23.958342    -23.335714    -7.603985    20.455328    -10.231760    27.302809    -8.541326    -19.758438    25.470985    -43.320469    12.384597    42.354698    -68.132439    38.751534    31.377192    -57.074921    3.368806    18.417782    15.252114    25.110401    33.684944    27.166555    -7.777921    7.057685    36.881535    0.995880    9.624018    -0.462650    7.991644    -14.201228    -8.209114    -2.342249    16.558056    -29.193495    0.678459    -15.512087    8.141925    0.000000    0.000000    0.000000    -0.468534    -3.923349    -15.386677    -19.147352    41.634922    8.951015    14.043340    -20.992531    32.666233    0.000000    0.000000    0.000000    
-0.437831    0.830741    1.458823    -2.060122    -12.216747    -4.398612    4.550691    4.439087    -6.099283    -7.853552    17.803343    -0.748920    5.667110    19.075449    23.998829    -23.043962    -7.714370    20.528502    -10.581944    27.507671    -8.093422    -18.791466    27.103336    -43.928814    12.384597    42.354698    -68.132439    38.751534    31.377192    -57.074921    3.003322    17.600893    16.170597    25.326647    28.202286    30.283459    -0.594256    10.822411    30.638321    -1.636531    10.968693    0.964098    7.760631    -14.314327    -8.004373    -2.187758    15.909019    -29.839262    0.678459    -15.512087    8.141925    0.000000    0.000000    0.000000    -0.721158    -5.154805    -15.979812    -19.291277    42.533791    9.707543    13.297471    -20.458471    31.657270    0.000000    0.000000    0.000000    
-0.438519    0.831702    1.449675    -2.128731    -11.609488    -3.580321    5.286841    4.570432    -5.407215    -7.849525    17.303450    -0.542404    6.028963    18.935972    23.922688    -23.081760    -7.241750    20.535679    -12.273227    28.377052    -6.952560    -19.410830    23.906113    -44.062542    12.384597    42.354698    -68.132439    38.751534    31.377192    -57.074921    2.576809    18.569128    15.973458    24.120405    28.846003    31.746601    -1.532235    8.806203    30.024038    -0.842452    9.208396    0.502507    7.850214    -14.921540    -7.706879    -2.057762    15.380908    -30.762281    0.678459    -15.512087    8.141925    0.000000    0.000000    0.000000    -0.381505    -4.727395    2.611061    -1.041887    43.557384    -17.205235    13.741870    -21.541021    32.404648    0.000000    0.000000    0.000000    
-0.439617    0.833131    1.442093    -1.654506    -11.479781    -2.624342    5.226341    4.602799    -4.875392    -7.631241    17.496067    -0.385919    5.982276    18.494036    24.095507    -22.745907    -6.421450    20.919950    -12.639648    28.410175    -6.599162    -20.237978    23.564550    -44.065170    12.384597    42.354698    -68.132439    38.751534    31.377192    -57.074921    2.597270    16.788176    16.935106    24.537870    35.980419    29.215498    -7.583676    3.507864    31.432491    1.908805    5.627120    -0.679113    7.430628    -14.716629    -7.548086    -1.980421    14.275301    -31.528564    0.678459    -15.512087    8.141925    0.000000    0.000000    0.000000    -1.003550    -5.323643    2.455981    0.115184    43.605453    -17.554710    12.942450    -21.531744    31.232109    0.000000    0.000000    0.000000    
-0.441065    0.834407    1.435997    -1.075059    -11.817243    -1.741165    5.130806    5.542729    -4.660290    -8.610462    16.059242    -0.260177    8.109610    20.545908    24.222979    -24.222265    -6.565975    20.951605    -12.350419    29.888464    -6.064772    -19.308949    25.560490    -44.539330    12.384597    42.354698    -68.132439    38.751534    31.377192    -57.074921    3.803879    17.471851    18.560194    23.769388    38.074295    28.542730    -7.583676    3.507864    31.432491    1.908805    5.627120    -0.679113    7.043415    -13.574725    -8.189539    -2.310498    12.951021    -31.726152    0.678459    -15.512087    8.141925    0.000000    0.000000    0.000000    -1.676223    -5.152866    2.212686    1.051115    43.362801    -17.700005    12.133710    -21.886114    29.845293    0.000000    0.000000    0.000000    
